<svg xmlns="http://www.w3.org/2000/svg" width="512" height="512" viewBox="0 0 512 512">
  <path fill="#1D1D1B" d="M512 134.833c0-49.146-40-89.124-89.167-89.124a90.87 90.87 0 00-7.146.27C392.562 17.146 357.709 0 320 0c-37.688 0-72.562 17.146-95.688 45.979a91.556 91.556 0 00-7.188-.27C168 45.709 128 85.688 128 134.833c0 5.146.688 10.125 1.5 15.042-.542.708-1.188 1.354-1.708 2.083A110.94 110.94 0 00112 150.833c-61.75 0-112 50.25-112 112 0 61.751 50.25 112 112 112 13.688 0 27.084-2.499 39.709-7.333 18.354 16 40.104 26.938 63.207 33.208L192 416l32 32-32 64 96-64-32-32 4.812-9.583c36.75-1.125 71.75-14.729 99.479-38.917A110.804 110.804 0 00400 374.833c61.75 0 112-50.249 112-112 0-25.666-9.042-49.083-23.666-68 14.582-15.875 23.666-36.812 23.666-60zm-112 208c-17.125 0-32.916-5.5-45.938-14.646-19 22.896-45.75 38.729-76.229 44.125l-23.771 2.312C215.25 374 181 356 157.938 328.188c-13 9.146-28.812 14.646-45.938 14.646-44.188 0-80-35.791-80-80 0-44.167 35.812-80 80-80 10.812 0 21.062 2.209 30.438 6.083.562-1.083 1.25-2 1.812-3.042a130.207 130.207 0 0120.666-28.042c23.084-23.896 55.167-39 91.084-39 49.709 0 92.334 28.667 113.541 70.083 5.646-2.333 11.668-3.833 17.875-4.833l12.584-1.25c12.334 0 23.875 3.042 34.312 8 11.312 5.417 21.021 13.375 28.646 23.208 10.5 13.521 17.042 30.334 17.042 48.792 0 44.209-35.812 80-80 80zm65.562-170.375c-18.479-13.438-41-21.625-65.562-21.625-5.312 0-10.562.375-15.792 1.125-29.874-40.687-77.02-65.125-128.208-65.125-34.125 0-66.312 11.062-92.938 30.354 7.479-22.853 28.729-39.478 54.062-39.478a56.58 56.58 0 0121.75 4.333C254.062 52.458 284.5 32 320 32s65.958 20.458 81.084 50.042c6.729-2.771 14.083-4.333 21.749-4.333 31.584 0 57.167 25.583 57.167 57.124 0 14.5-5.562 27.563-14.438 37.625z"/>
</svg>
